# xmcd CD database file
#
# Track frame offsets:
#	150
#	24526
#	37313
#	51526
#	79163
#	93188
#	111039
#	127952
#	141827
#	162191
#	181616
#	230426
#	264701
#	305438
#	322928
#
# Disc length: 4753 seconds
#
# Revision: 1
# Processed by: cddbd v1.5.1PL2 Copyright (c) Steve Scherf et al.
# Submitted via: freedbtool 1.11
#
DISCID=c5128f0f
DTITLE=Stevie Ray Vaughan and Double Trouble - Soul to Soul/Live at Montreaux '85 vol. 2
DYEAR=1985
DGENRE=Blues
TTITLE0=Say What!
TTITLE1=Looking Out The Window
TTITLE2=Look at Little Sister
TTITLE3=Ain't Gone 'n' Give Up On Love
TTITLE4=Gone Home
TTITLE5=Change It
TTITLE6=You'll Be Mine
TTITLE7=Empty Arms
TTITLE8=Come On (part III)
TTITLE9=Life Without You
TTITLE10=Voodoo Child (Slight Return)
TTITLE11=Texas Flood
TTITLE12=Life Without You
TTITLE13=Gone Home
TTITLE14=Couldn't Stand the Weather
EXTD=YEAR: 1985 ID3G: 0
EXTT0=
EXTT1=
EXTT2=
EXTT3=
EXTT4=
EXTT5=
EXTT6=
EXTT7=
EXTT8=
EXTT9=
EXTT10=
EXTT11=
EXTT12=
EXTT13=
EXTT14=
PLAYORDER=
